<svg width="33" height="21" viewBox="0 0 33 21" fill="none" xmlns="http://www.w3.org/2000/svg">
<rect x="0.75" y="1.25" width="31.5" height="18.5" rx="3.25" stroke="currentColor" stroke-width="1.5"/>
<path d="M8.888 15.708C8.072 15.708 7.35467 15.5133 6.736 15.124C6.12267 14.7347 5.64533 14.148 5.304 13.364C4.96267 12.58 4.792 11.5933 4.792 10.404C4.792 9.22 4.96267 8.236 5.304 7.452C5.64533 6.668 6.12267 6.084 6.736 5.7C7.35467 5.316 8.072 5.124 8.888 5.124C9.69867 5.124 10.4107 5.316 11.024 5.7C11.6373 6.084 12.1147 6.668 12.456 7.452C12.8027 8.236 12.976 9.22 12.976 10.404C12.976 11.5933 12.8027 12.58 12.456 13.364C12.1147 14.148 11.6373 14.7347 11.024 15.124C10.4107 15.5133 9.69867 15.708 8.888 15.708ZM8.888 14.308C9.69867 14.308 10.32 13.972 10.752 13.3C11.1893 12.6227 11.408 11.6573 11.408 10.404C11.408 9.156 11.1893 8.19333 10.752 7.516C10.32 6.83867 9.69867 6.5 8.888 6.5C8.07733 6.5 7.45333 6.83867 7.016 7.516C6.584 8.19333 6.368 9.156 6.368 10.404C6.368 11.6573 6.584 12.6227 7.016 13.3C7.45333 13.972 8.07733 14.308 8.888 14.308ZM14.1096 15.5L17.0616 11.66L14.1096 7.78H15.9736L18.0456 10.508L20.0216 7.78H21.8776L18.9256 11.66L21.8696 15.5H20.0136L17.9336 12.764L15.9736 15.5H14.1096ZM22.6744 14.604C22.6744 14.3053 22.7757 14.052 22.9784 13.844C23.1864 13.636 23.4477 13.532 23.7624 13.532C24.077 13.532 24.3437 13.636 24.5624 13.844C24.781 14.052 24.8904 14.3053 24.8904 14.604C24.8904 14.8973 24.781 15.1453 24.5624 15.348C24.3437 15.5453 24.077 15.644 23.7624 15.644C23.4477 15.644 23.1864 15.5427 22.9784 15.34C22.7757 15.1373 22.6744 14.892 22.6744 14.604ZM25.7838 14.604C25.7838 14.3053 25.8851 14.052 26.0878 13.844C26.2958 13.636 26.5571 13.532 26.8718 13.532C27.1864 13.532 27.4531 13.636 27.6718 13.844C27.8904 14.052 27.9998 14.3053 27.9998 14.604C27.9998 14.8973 27.8904 15.1453 27.6718 15.348C27.4531 15.5453 27.1864 15.644 26.8718 15.644C26.5571 15.644 26.2958 15.5427 26.0878 15.34C25.8851 15.1373 25.7838 14.892 25.7838 14.604Z" fill="currentColor"/>
</svg>
